# xmcd
#
# Track frame offsets: 
#        183
#        19005
#        33473
#        50220
#        66063
#        83763
#        103850
#        122943
#        138500
#        150550
#        157243
#        164575
#        175970
#        185073
#        192760
#        202965
#        215655
#        237718
#
# Disc length: 3297 seconds
#
# Revision: 0
# Processed by: cddbd v1.5.2PL0 Copyright (c) Steve Scherf et al.
# Submitted via: ExactAudioCopyFreeDBPlugin 1.0
#
DISCID=110cdf12
DTITLE=Andre Previn and Michel Legrand - Side by Side
DYEAR=1900
DGENRE=Oldies
TTITLE0=Ain't Misbehavin
TTITLE1=Honeysuckle Rose
TTITLE2=Black and Blue
TTITLE3=I've Got a Feeling
TTITLE4=Oh You Sweet Thing
TTITLE5=That's Where The West Begins
TTITLE6=Fatstuff
TTITLE7=Stealin' Apples
TTITLE8=Paris Was Made For Lovers
TTITLE9=The Street Where You Live
TTITLE10=Where Love Begins
TTITLE11=A Place In Paris
TTITLE12=Do You Come Here Often
TTITLE13=Pavanne For People
TTITLE14=Sea and Sky
TTITLE15=In Love In Normandy
TTITLE16=Old Lovers Never Die
TTITLE17=Where Love Ends
EXTD=
EXTT0=
EXTT1=
EXTT2=
EXTT3=
EXTT4=
EXTT5=
EXTT6=
EXTT7=
EXTT8=
EXTT9=
EXTT10=
EXTT11=
EXTT12=
EXTT13=
EXTT14=
EXTT15=
EXTT16=
EXTT17=
PLAYORDER=
